<svg width="62" height="62" viewBox="0 0 62 62" fill="none" xmlns="http://www.w3.org/2000/svg">
<path d="M43.271 59.4167H17.4377C14.5842 59.4167 12.271 57.1035 12.271 54.25V7.74999C12.271 4.89652 14.5842 2.58333 17.4377 2.58333H43.271C46.1245 2.58333 48.4377 4.89652 48.4377 7.74999V54.25C48.4377 57.1035 46.1245 59.4167 43.271 59.4167ZM17.4377 7.74999V54.25H43.271V7.74999H17.4377ZM30.3543 51.6667C28.9276 51.6667 27.771 50.5101 27.771 49.0833C27.771 47.6566 28.9276 46.5 30.3543 46.5C31.7811 46.5 32.9377 47.6566 32.9377 49.0833C32.9377 50.5101 31.7811 51.6667 30.3543 51.6667Z" fill="black"/>
</svg>
